<svg id="Layer_1" data-name="Layer 1" xmlns="http://www.w3.org/2000/svg" viewBox="0 0 376.34 41.4"><defs><style>.cls-1{fill:#1d1d1b;}.cls-2{fill:#1d1e1c;}.cls-3{fill:#c51618;}</style></defs><title>HomeElementos</title><g id="_Group_" data-name="&lt;Group&gt;"><g id="_Group_2" data-name="&lt;Group&gt;"><g id="_Group_3" data-name="&lt;Group&gt;"><g id="_Group_4" data-name="&lt;Group&gt;"><g id="_Group_5" data-name="&lt;Group&gt;"><g id="_Group_6" data-name="&lt;Group&gt;"><g id="_Group_7" data-name="&lt;Group&gt;"><path id="_Compound_Path_" data-name="&lt;Compound Path&gt;" class="cls-1" d="M59.81,15.59H65v9.75a8,8,0,0,1-.47,2.74A6.18,6.18,0,0,1,61,31.69a10.8,10.8,0,0,1-3.63.54,21.78,21.78,0,0,1-2.68-.17,7.16,7.16,0,0,1-2.42-.66A6.06,6.06,0,0,1,50.47,30a5.32,5.32,0,0,1-1.1-1.88,9.6,9.6,0,0,1-.48-2.77V15.59h5.18v10a2.8,2.8,0,0,0,.76,2.09,2.91,2.91,0,0,0,2.12.76,2.87,2.87,0,0,0,2.1-.75,2.77,2.77,0,0,0,.76-2.1Z"/><path id="_Compound_Path_2" data-name="&lt;Compound Path&gt;" class="cls-1" d="M68,15.59h4.85l6.33,9.05v-9h4.9V32h-4.9l-6.29-9v9H68Z"/><path id="_Compound_Path_3" data-name="&lt;Compound Path&gt;" class="cls-1" d="M87.27,15.59h5.2V32h-5.2Z"/><path id="_Compound_Path_4" data-name="&lt;Compound Path&gt;" class="cls-1" d="M94.08,15.59h5.43l3.78,11.78L107,15.59h5.27L106.06,32h-5.63Z"/><path id="_Compound_Path_5" data-name="&lt;Compound Path&gt;" class="cls-1" d="M113.52,15.59h13.92v3.5h-8.72v2.6h8.09V25h-8.09v3.23h9V32H113.52Z"/><path id="_Compound_Path_6" data-name="&lt;Compound Path&gt;" class="cls-1" d="M130.09,32V15.59h8.66a12.8,12.8,0,0,1,3.68.41,3.84,3.84,0,0,1,2,1.49,4.39,4.39,0,0,1,.78,2.64,4.41,4.41,0,0,1-.6,2.35A4.52,4.52,0,0,1,143,24.09a6.34,6.34,0,0,1-1.82.64,5.12,5.12,0,0,1,1.35.61,4.91,4.91,0,0,1,.83.86,5.87,5.87,0,0,1,.73,1L146.63,32h-5.87L138,27a4,4,0,0,0-.94-1.26,2.26,2.26,0,0,0-1.27-.38h-.46V32Zm5.22-9.73h2.19a7.84,7.84,0,0,0,1.37-.22,1.42,1.42,0,0,0,.85-.51,1.55,1.55,0,0,0,.32-.95,1.49,1.49,0,0,0-.51-1.22,3.23,3.23,0,0,0-1.94-.42h-2.28Z"/><path id="_Compound_Path_7" data-name="&lt;Compound Path&gt;" class="cls-1" d="M146.91,26.54l4.94-.3a3.57,3.57,0,0,0,.66,1.78,2.75,2.75,0,0,0,2.29,1,2.61,2.61,0,0,0,1.72-.51,1.44,1.44,0,0,0,0-2.32,6.79,6.79,0,0,0-2.66-.94,11.45,11.45,0,0,1-4.88-2,4,4,0,0,1-1.47-3.16,4.15,4.15,0,0,1,.76-2.38A4.83,4.83,0,0,1,150.55,16a10.8,10.8,0,0,1,4.14-.65,8.6,8.6,0,0,1,4.91,1.17,5,5,0,0,1,2,3.71l-4.89.28a2.58,2.58,0,0,0-.82-1.61,2.72,2.72,0,0,0-1.73-.5,2.16,2.16,0,0,0-1.36.37,1.14,1.14,0,0,0-.46.92.88.88,0,0,0,.38.7,4.43,4.43,0,0,0,1.74.6,22.92,22.92,0,0,1,4.88,1.44,5.09,5.09,0,0,1,2.14,1.82,4.48,4.48,0,0,1,.67,2.42,5,5,0,0,1-.89,2.9,5.58,5.58,0,0,1-2.5,2,10.5,10.5,0,0,1-4.05.68q-4.29,0-5.94-1.6A6.33,6.33,0,0,1,146.91,26.54Z"/><path id="_Compound_Path_8" data-name="&lt;Compound Path&gt;" class="cls-1" d="M164.52,15.59h5.2V32h-5.2Z"/><path id="_Compound_Path_9" data-name="&lt;Compound Path&gt;" class="cls-1" d="M173.05,15.59h7.72a9.26,9.26,0,0,1,3.68.61,5.84,5.84,0,0,1,2.32,1.73,7,7,0,0,1,1.34,2.62,12.08,12.08,0,0,1,.41,3.17,10.64,10.64,0,0,1-.62,4.06,6.54,6.54,0,0,1-1.7,2.43,5.58,5.58,0,0,1-2.34,1.3,12.68,12.68,0,0,1-3.09.44h-7.72Zm5.19,3.71v8.94h1.28a5.36,5.36,0,0,0,2.31-.36,2.38,2.38,0,0,0,1.08-1.22,7.53,7.53,0,0,0,.39-2.84c0-1.74-.29-2.92-.87-3.56a3.74,3.74,0,0,0-2.89-1Z"/><path id="_Compound_Path_10" data-name="&lt;Compound Path&gt;" class="cls-1" d="M200.1,29.25h-5.89l-.82,2.7h-5.31l6.32-16.36h5.67L206.38,32h-5.44ZM199,25.71l-1.86-5.88-1.84,5.88Z"/><path id="_Compound_Path_11" data-name="&lt;Compound Path&gt;" class="cls-1" d="M207.64,15.59h7.71a9.34,9.34,0,0,1,3.69.61,5.84,5.84,0,0,1,2.32,1.73,7,7,0,0,1,1.33,2.62,11.67,11.67,0,0,1,.41,3.17,10.66,10.66,0,0,1-.61,4.06,6.66,6.66,0,0,1-1.7,2.43,5.7,5.7,0,0,1-2.34,1.3,12.69,12.69,0,0,1-3.1.44h-7.71Zm5.19,3.71v8.94h1.27a5.38,5.38,0,0,0,2.32-.36,2.38,2.38,0,0,0,1.08-1.22,7.53,7.53,0,0,0,.39-2.84c0-1.74-.29-2.92-.87-3.56a3.77,3.77,0,0,0-2.89-1Z"/></g><g id="_Group_8" data-name="&lt;Group&gt;"><path id="_Compound_Path_12" data-name="&lt;Compound Path&gt;" class="cls-1" d="M234.6,15.59h7.74a9.56,9.56,0,0,1,3.7.6,6,6,0,0,1,2.33,1.73,7.06,7.06,0,0,1,1.33,2.62,11.72,11.72,0,0,1,.42,3.17,10.69,10.69,0,0,1-.62,4.07,6.73,6.73,0,0,1-1.71,2.42,5.59,5.59,0,0,1-2.34,1.3,12.4,12.4,0,0,1-3.11.45H234.6Zm5.21,3.7v8.94h1.28a5.6,5.6,0,0,0,2.32-.35,2.37,2.37,0,0,0,1.08-1.23,7.5,7.5,0,0,0,.39-2.84,5.42,5.42,0,0,0-.87-3.56,3.78,3.78,0,0,0-2.9-1Z"/><path id="_Compound_Path_13" data-name="&lt;Compound Path&gt;" class="cls-1" d="M251.62,15.59h14v3.49h-8.75v2.6H265V25h-8.12v3.22h9V32H251.62Z"/><path id="_Compound_Path_14" data-name="&lt;Compound Path&gt;" class="cls-1" d="M268.37,15.59h5.21V27.92h8.14v4H268.37Z"/><path id="_Compound_Path_15" data-name="&lt;Compound Path&gt;" class="cls-1" d="M291.58,15.59h4.87l6.35,9.05v-9h4.91V32H302.8l-6.32-9v9h-4.9Z"/><path id="_Compound_Path_16" data-name="&lt;Compound Path&gt;" class="cls-1" d="M309.24,23.78a8.27,8.27,0,0,1,2.3-6.24A8.8,8.8,0,0,1,318,15.31a9,9,0,0,1,6.49,2.19,8.13,8.13,0,0,1,2.28,6.15,9.86,9.86,0,0,1-1,4.7,7.06,7.06,0,0,1-2.87,2.86,9.77,9.77,0,0,1-4.69,1,11.22,11.22,0,0,1-4.73-.88,7.11,7.11,0,0,1-3-2.79A9.12,9.12,0,0,1,309.24,23.78Zm5.21,0a5.38,5.38,0,0,0,.95,3.56,3.67,3.67,0,0,0,5.18,0c.62-.7.92-2,.92-3.8a5,5,0,0,0-1-3.38,3.33,3.33,0,0,0-2.6-1.06,3.2,3.2,0,0,0-2.53,1.08A5.36,5.36,0,0,0,314.45,23.8Z"/><path id="_Compound_Path_17" data-name="&lt;Compound Path&gt;" class="cls-1" d="M328.42,32V15.59h8.69a12.89,12.89,0,0,1,3.69.4,3.91,3.91,0,0,1,2.06,1.49,4.44,4.44,0,0,1,.78,2.65,4.44,4.44,0,0,1-.6,2.35,4.58,4.58,0,0,1-1.64,1.6,6.52,6.52,0,0,1-1.83.65,5.16,5.16,0,0,1,1.35.6,5.24,5.24,0,0,1,.84.86,7.21,7.21,0,0,1,.73,1L345,32h-5.89l-2.79-5a3.66,3.66,0,0,0-.94-1.26,2.17,2.17,0,0,0-1.28-.38h-.46V32Zm5.23-9.73h2.2a8.12,8.12,0,0,0,1.38-.23,1.33,1.33,0,0,0,.85-.51,1.46,1.46,0,0,0,.33-.95,1.48,1.48,0,0,0-.52-1.21,3.18,3.18,0,0,0-1.95-.43h-2.29Z"/><path id="_Compound_Path_18" data-name="&lt;Compound Path&gt;" class="cls-1" d="M345,15.59h15.84v4h-5.31V32h-5.21V19.63H345Z"/><path id="_Compound_Path_19" data-name="&lt;Compound Path&gt;" class="cls-1" d="M362.12,15.59h14v3.49h-8.74v2.6h8.11V25h-8.11v3.22h9V32H362.12Z"/></g></g></g></g></g></g></g><g id="_Group_9" data-name="&lt;Group&gt;"><g id="_Group_10" data-name="&lt;Group&gt;"><g id="_Group_11" data-name="&lt;Group&gt;"><g id="_Group_12" data-name="&lt;Group&gt;"><g id="_Group_13" data-name="&lt;Group&gt;"><g id="_Group_14" data-name="&lt;Group&gt;"><g id="_Group_15" data-name="&lt;Group&gt;"><g id="_Group_16" data-name="&lt;Group&gt;"><g id="_Group_17" data-name="&lt;Group&gt;"><path id="_Path_" data-name="&lt;Path&gt;" class="cls-2" d="M33.06,36.43c0-.19-.07-.64-.85-.63L5,35.85c-.84,0-1,.45-1.1,1-.5,2-.47,1.88-.92,3.77,0,.29-.17.78.54.76l14.41-3.33a4.61,4.61,0,0,1,1.23,0c5.45,1.3,9.15,2,14.58,3.33.47,0,.57-.29.51-.67-.58-2.15-.61-2.15-1.19-4.29"/></g></g><g id="_Group_18" data-name="&lt;Group&gt;"><g id="_Group_19" data-name="&lt;Group&gt;"><path id="_Path_2" data-name="&lt;Path&gt;" class="cls-2" d="M17.16,35.37c1.21,0,1.26-.41,1.26-1.17,0-12.54,0-21.45,0-34A.23.23,0,0,0,18,.13a93,93,0,0,1-4.32,10.7c-.19.28-.38.36-1.06.37-4.37,0-7.08-.06-11.43,0C.6,11.2,0,11.33,0,12.44V34.15c0,.57.09,1.22,1.25,1.22H17.16Z"/></g></g><g id="_Group_20" data-name="&lt;Group&gt;"><g id="_Group_21" data-name="&lt;Group&gt;"><path id="_Path_3" data-name="&lt;Path&gt;" class="cls-2" d="M36.26,11.19c-4.34,0-7.07,0-11.44,0-.67,0-.86-.09-1.05-.37-1.51-3.61-2.95-6.7-4.32-10.7A.23.23,0,0,0,19,.21c0,12.54,0,21.45,0,34,0,.76,0,1.17,1.23,1.17H36.19c1.17,0,1.24-.65,1.24-1.22V12.44c0-1.11-.59-1.24-1.17-1.25"/></g></g><g id="_Group_22" data-name="&lt;Group&gt;"><g id="_Group_23" data-name="&lt;Group&gt;"><path id="_Path_4" data-name="&lt;Path&gt;" class="cls-3" d="M17.13,26.4a8.7,8.7,0,0,1-.57,3.29A6.54,6.54,0,0,1,15,32.13a6.8,6.8,0,0,1-2.55,1.52,10.54,10.54,0,0,1-3.33.5,8.22,8.22,0,0,1-5.94-2A7.53,7.53,0,0,1,1,26.4V13.28H6.1V26.09a11.46,11.46,0,0,0,.13,1.72,3.92,3.92,0,0,0,.47,1.4,2.48,2.48,0,0,0,.92.9,2.73,2.73,0,0,0,1.47.35,2.62,2.62,0,0,0,1.4-.35,2.48,2.48,0,0,0,.92-.9,4,4,0,0,0,.51-1.4,9.29,9.29,0,0,0,.14-1.72V13.28h5.07Z"/></g></g><g id="_Group_24" data-name="&lt;Group&gt;"><g id="_Group_25" data-name="&lt;Group&gt;"><polygon id="_Path_5" data-name="&lt;Path&gt;" class="cls-3" points="29.45 33.82 24.5 18.7 24.5 33.82 20.17 33.82 20.17 13.28 27.06 13.28 32.02 28.4 32.02 13.28 36.34 13.28 36.34 33.82 29.45 33.82"/></g></g></g></g></g></g></g></g></g></svg>